<?xml version="1.0" standalone="no"?>
<svg viewBox="0 0 200 200" xmlns="http://www.w3.org/2000/svg">
  <path fill="#FF0066" d="M35.3,-61.5C47.2,-54.2,59.4,-47.8,69.7,-37.7C80,-27.6,88.4,-13.8,87.4,-0.5C86.5,12.7,76.3,25.4,67.9,38.9C59.6,52.3,53.1,66.6,42.1,72.1C31.1,77.7,15.5,74.6,0.3,74.1C-14.9,73.6,-29.9,75.6,-42.6,71C-55.3,66.4,-65.8,55.2,-72.6,42.3C-79.4,29.4,-82.6,14.7,-80.9,1C-79.2,-12.7,-72.6,-25.4,-65.1,-37.1C-57.6,-48.8,-49,-59.5,-38,-67.3C-27,-75.2,-13.5,-80.2,-0.9,-78.6C11.7,-77.1,23.4,-68.9,35.3,-61.5Z" transform="translate(100 100)" />
</svg>
