<?xml version="1.0" standalone="no"?>
<svg viewBox="0 0 200 200" xmlns="http://www.w3.org/2000/svg">
  <path fill="#ffcce1" d="M41.6,-66.6C53.3,-57.3,61.6,-44.6,69.7,-30.7C77.8,-16.8,85.6,-1.7,84.1,12.4C82.6,26.5,71.7,39.6,60.2,51.3C48.7,63,36.6,73.4,22.7,77.7C8.7,82,-7.2,80.3,-21.5,75.1C-35.8,70,-48.5,61.6,-58,50.4C-67.4,39.2,-73.5,25.3,-74.8,11.3C-76,-2.8,-72.3,-17.1,-67.1,-31.6C-61.9,-46.1,-55.3,-60.9,-43.9,-70.3C-32.4,-79.7,-16.2,-83.7,-0.6,-82.8C15,-81.8,30,-75.9,41.6,-66.6Z" transform="translate(100 100)" />
</svg>
